<?xml version="1.0" encoding="UTF-8"?>
<svg id="Siesa_Logosimbolos" xmlns="http://www.w3.org/2000/svg" version="1.1" viewBox="0 0 2000.01 500">
  <!-- Generator: Adobe Illustrator 29.8.1, SVG Export Plug-In . SVG Version: 2.1.1 Build 2)  -->
  <defs>
    <style>
      .st0 {
        fill: #fff;
      }
    </style>
  </defs>
  <g>
    <path class="st0" d="M813.02,404.07c-165.79,0-171.25-110.18-171.25-115.7h52.63s-.61,74.35,119.46,74.35h1.25c64.32,0,104-20.88,104-55.55v-1.67c0-27.57-23.81-38.43-95.65-47.2l-49.7-6.27c-76.85-9.61-123.63-33.41-123.63-90.64v-2.09c0-64.74,59.73-98.57,151.62-98.57h.84c161.01,0,161.4,108.26,161.4,108.26h-51.68s1.14-66.9-110.55-66.9h-.84c-61.82,0-98.16,20.47-98.16,55.13v1.67c0,27.15,22.14,43.44,91.89,52.21l47.2,5.85c89.8,10.86,130.74,37.17,130.74,87.71v2.09c0,64.74-64.74,97.32-158.72,97.32h-.85Z"/>
    <path class="st0" d="M1560.63,404.07c-142.87,0-142.85-87.71-142.85-87.71h49.07c0,4.14,13.22,50.96,97.96,50.96h.84c53.88,0,80.61-12.11,80.61-36.76v-1.25c0-22.56-23.39-30.07-69.34-34.67l-55.13-5.01c-59.31-5.43-100.24-22.55-100.24-67.66v-1.67c0-47.62,48.87-74.77,131.15-74.77h.84c126.87,0,134.91,71.8,134.91,86.46h-50.12s2.54-49.7-84.79-49.7h-.84c-49.29,0-81.03,14.2-81.03,39.26v.84c0,22.97,27.57,30.91,73.93,35.5l57.22,5.43c65.16,6.68,93.98,26.73,93.98,64.74v2.09c0,48.87-45.95,73.93-135.33,73.93h-.84Z"/>
    <g>
      <rect class="st0" x="1014.7" y="168.99" width="47.02" height="230.9"/>
      <rect class="st0" x="1012.62" y="65.58" width="51.18" height="51.18"/>
    </g>
    <path class="st0" d="M1984.77,190.65c-10.2-15.12-25.5-26.43-45.89-33.91-20.4-7.47-46.41-11.22-78.02-11.22-94.51,0-129.22,41.19-133.11,86.46h50.32c1.68-35.05,41.78-49.7,81.77-49.7,31.62,0,54.73,3.6,69.35,13.11,14.61,9.52,21.93,23.8,21.93,42.84v15.07c-108.47-.19-227.95-1.17-227.95,79.57,0,69.38,81.08,71.4,99.44,71.4,80.19,0,127.96-48.44,127.96-48.44l.04,43.8h49.47v-155.17c0-20.73-5.1-38.67-15.3-53.8h-.01ZM1935.56,326.23c-10.37,12.24-24.57,21.85-42.58,28.81-18.02,6.97-37.91,10.45-59.66,10.45-13.26,0-59.16-5.05-59.16-33.66,0-21.16,11.93-42.1,176.9-43.02-.54,13.38-5.71,25.85-15.5,37.41h0Z"/>
    <path class="st0" d="M1390.21,272.08c-2.09-79.78-53.88-126.56-141.18-126.56h-.84c-90.22,0-144.52,47.2-144.52,126.14v2.09c0,81.45,55.97,130.32,149.53,130.32h.84c64.52,0,117.2-37.61,130.2-87.71l-48.33-.11c-8.77,26.73-35.5,48.15-81.87,48.15h-.84c-60.15,0-95.23-25.48-100.24-75.6h236.61c.71-4.3.63-16.71.63-16.71h0ZM1247.36,182.28h.84c53.21,0,85.14,26.08,91.91,72.32h-186.73c6.81-46.24,39.97-72.32,93.99-72.32h-.01Z"/>
  </g>
  <polygon class="st0" points=".07 300 .07 0 300.07 0 .07 300"/>
  <polygon class="st0" points=".07 500 .07 300 200.07 300 .07 500"/>
  <polygon class="st0" points="500.07 0 500.07 300 200.07 300 500.07 0"/>
  <polygon class="st0" points="500.07 300 500.07 500 300.07 500 500.07 300"/>
</svg>